<?xml version="1.0" encoding="UTF-8"?>
<svg xmlns="http://www.w3.org/2000/svg" xmlns:xlink="http://www.w3.org/1999/xlink" width="248pt" height="130pt" viewBox="0 0 248 130" version="1.1">
<g id="surface1">
<path style=" stroke:none;fill-rule:nonzero;fill:rgb(94.509804%,94.509804%,94.509804%);fill-opacity:1;" d="M 19.140625 123.125 C 15.230469 125.238281 13.550781 129.722656 13.550781 129.722656 C 13.550781 129.722656 18.214844 130.78125 22.125 128.667969 C 26.035156 126.554688 27.714844 122.070312 27.714844 122.070312 C 27.714844 122.070312 23.054688 121.011719 19.140625 123.125 Z M 19.140625 123.125 "/>
<path style=" stroke:none;fill-rule:nonzero;fill:rgb(94.509804%,94.509804%,94.509804%);fill-opacity:1;" d="M 20.429688 124.578125 C 18.136719 128.394531 13.585938 129.863281 13.585938 129.863281 C 13.585938 129.863281 12.75 125.144531 15.042969 121.332031 C 17.332031 117.515625 21.882812 116.046875 21.882812 116.046875 C 21.882812 116.046875 22.71875 120.761719 20.429688 124.578125 Z M 20.429688 124.578125 "/>
<path style=" stroke:none;fill-rule:nonzero;fill:rgb(79.607843%,79.607843%,79.607843%);fill-opacity:1;" d="M 122.195312 2.859375 L 234.894531 2.859375 L 234.894531 3.363281 L 122.195312 3.363281 Z M 122.195312 2.859375 "/>
<path style=" stroke:none;fill-rule:nonzero;fill:rgb(79.607843%,79.607843%,79.607843%);fill-opacity:1;" d="M 137.296875 3.050781 L 137.796875 3.050781 L 137.796875 18.972656 L 137.296875 18.972656 Z M 137.296875 3.050781 "/>
<path style=" stroke:none;fill-rule:nonzero;fill:rgb(79.607843%,79.607843%,79.607843%);fill-opacity:1;" d="M 178.800781 31.589844 L 153.039062 31.589844 L 153.039062 3.035156 L 153.539062 3.035156 L 153.539062 31.089844 L 178.800781 31.089844 Z M 178.800781 31.589844 "/>
<path style=" stroke:none;fill-rule:nonzero;fill:rgb(79.607843%,79.607843%,79.607843%);fill-opacity:1;" d="M 169.972656 3.050781 L 170.472656 3.050781 L 170.472656 18.972656 L 169.972656 18.972656 Z M 169.972656 3.050781 "/>
<path style=" stroke:none;fill-rule:nonzero;fill:rgb(79.607843%,79.607843%,79.607843%);fill-opacity:1;" d="M 178.359375 31.355469 L 178.859375 31.355469 L 178.859375 47.277344 L 178.359375 47.277344 Z M 178.359375 31.355469 "/>
<path style=" stroke:none;fill-rule:nonzero;fill:rgb(79.607843%,79.607843%,79.607843%);fill-opacity:1;" d="M 204.25 3.050781 L 204.75 3.050781 L 204.75 18.972656 L 204.25 18.972656 Z M 204.25 3.050781 "/>
<path style=" stroke:none;fill-rule:nonzero;fill:rgb(79.607843%,79.607843%,79.607843%);fill-opacity:1;" d="M 221.390625 3.050781 L 221.890625 3.050781 L 221.890625 18.972656 L 221.390625 18.972656 Z M 221.390625 3.050781 "/>
<path style=" stroke:none;fill-rule:nonzero;fill:rgb(42.352941%,38.823529%,100%);fill-opacity:1;" d="M 132.859375 21.40625 L 142.351562 21.40625 L 142.351562 25.113281 L 132.859375 25.113281 Z M 132.859375 21.40625 "/>
<path style=" stroke:none;fill-rule:nonzero;fill:rgb(24.705882%,23.921569%,33.72549%);fill-opacity:1;" d="M 165.359375 21.40625 L 174.851562 21.40625 L 174.851562 25.113281 L 165.359375 25.113281 Z M 165.359375 21.40625 "/>
<path style=" stroke:none;fill-rule:nonzero;fill:rgb(79.607843%,79.607843%,79.607843%);fill-opacity:1;" d="M 199.859375 21.40625 L 209.351562 21.40625 L 209.351562 25.113281 L 199.859375 25.113281 Z M 199.859375 21.40625 "/>
<path style=" stroke:none;fill-rule:nonzero;fill:rgb(42.352941%,38.823529%,100%);fill-opacity:1;" d="M 216.359375 21.40625 L 225.851562 21.40625 L 225.851562 25.113281 L 216.359375 25.113281 Z M 216.359375 21.40625 "/>
<path style=" stroke:none;fill-rule:nonzero;fill:rgb(24.705882%,23.921569%,33.72549%);fill-opacity:1;" d="M 238.609375 1.367188 L 248.101562 1.367188 L 248.101562 5.074219 L 238.609375 5.074219 Z M 238.609375 1.367188 "/>
<path style=" stroke:none;fill-rule:nonzero;fill:rgb(24.705882%,23.921569%,33.72549%);fill-opacity:1;" d="M 173.859375 49.460938 L 183.351562 49.460938 L 183.351562 53.167969 L 173.859375 53.167969 Z M 173.859375 49.460938 "/>
<path style=" stroke:none;fill-rule:nonzero;fill:rgb(42.352941%,38.823529%,100%);fill-opacity:1;" d="M 103.746094 0 L 118.964844 0 L 118.964844 5.941406 L 103.746094 5.941406 Z M 103.746094 0 "/>
<path style=" stroke:none;fill-rule:nonzero;fill:rgb(100%,71.764706%,71.764706%);fill-opacity:1;" d="M 70.621094 60.40625 L 71.613281 69.390625 L 84.316406 69.609375 L 82.78125 58.859375 Z M 70.621094 60.40625 "/>
<path style=" stroke:none;fill-rule:nonzero;fill:rgb(100%,71.764706%,71.764706%);fill-opacity:1;" d="M 64.898438 80.390625 C 65.289062 79.925781 65.449219 79.308594 65.34375 78.710938 C 65.234375 78.109375 64.867188 77.589844 64.339844 77.289062 L 64.929688 72.625 L 62.1875 71.574219 L 61.449219 78.171875 C 60.992188 79.113281 61.308594 80.25 62.1875 80.816406 C 63.070312 81.382812 64.234375 81.199219 64.898438 80.390625 Z M 64.898438 80.390625 "/>
<path style=" stroke:none;fill-rule:nonzero;fill:rgb(100%,71.764706%,71.764706%);fill-opacity:1;" d="M 87.992188 127.101562 L 90.679688 127.101562 L 91.957031 116.730469 L 87.992188 116.730469 Z M 87.992188 127.101562 "/>
<path style=" stroke:none;fill-rule:nonzero;fill:rgb(18.431373%,18.039216%,25.490196%);fill-opacity:1;" d="M 87.308594 126.226562 L 92.597656 126.226562 C 94.457031 126.226562 95.964844 127.738281 95.964844 129.601562 L 95.964844 129.710938 L 87.308594 129.710938 Z M 87.308594 126.226562 "/>
<path style=" stroke:none;fill-rule:nonzero;fill:rgb(100%,71.764706%,71.764706%);fill-opacity:1;" d="M 57.339844 127.101562 L 60.023438 127.101562 L 61.300781 116.730469 L 57.335938 116.730469 Z M 57.339844 127.101562 "/>
<path style=" stroke:none;fill-rule:nonzero;fill:rgb(18.431373%,18.039216%,25.490196%);fill-opacity:1;" d="M 56.652344 126.226562 L 61.941406 126.226562 C 63.800781 126.226562 65.308594 127.738281 65.308594 129.601562 L 65.308594 129.710938 L 56.652344 129.710938 Z M 56.652344 126.226562 "/>
<path style=" stroke:none;fill-rule:nonzero;fill:rgb(42.352941%,38.823529%,100%);fill-opacity:1;" d="M 61.203125 76.75 L 62.382812 63.066406 L 65.828125 50.566406 C 66.351562 48.695312 67.964844 47.335938 69.894531 47.144531 L 70.007812 47.132812 L 70.621094 56.515625 L 66.214844 65.582031 L 64.757812 76.464844 Z M 61.203125 76.75 "/>
<path style=" stroke:none;fill-rule:nonzero;fill:rgb(18.431373%,18.039216%,25.490196%);fill-opacity:1;" d="M 71.414062 64.160156 L 69.605469 67.421875 C 69.605469 67.421875 62.550781 74.566406 62.011719 85.601562 L 55.464844 123.15625 L 61.53125 123.007812 L 73.816406 87.808594 L 82.503906 102.742188 L 86.851562 122.257812 L 93.742188 120.980469 L 90.671875 98.316406 L 84.753906 77.226562 L 84.152344 65.742188 Z M 71.414062 64.160156 "/>
<path style=" stroke:none;fill-rule:nonzero;fill:rgb(100%,71.764706%,71.764706%);fill-opacity:1;" d="M 83.058594 37.214844 C 83.058594 40.191406 80.648438 42.605469 77.679688 42.605469 C 74.710938 42.605469 72.300781 40.191406 72.300781 37.214844 C 72.300781 34.238281 74.710938 31.828125 77.679688 31.828125 C 80.648438 31.828125 83.058594 34.238281 83.058594 37.214844 Z M 83.058594 37.214844 "/>
<path style=" stroke:none;fill-rule:nonzero;fill:rgb(18.431373%,18.039216%,25.490196%);fill-opacity:1;" d="M 56.449219 49.453125 C 57.449219 47.5 57.792969 45.277344 58.558594 43.222656 C 59.328125 41.164062 60.726562 39.121094 62.84375 38.554688 C 64.046875 38.234375 65.324219 38.429688 66.558594 38.277344 C 67.644531 38.144531 68.8125 37.585938 69.226562 36.621094 C 69.144531 35.664062 69.261719 34.699219 69.578125 33.792969 C 70.351562 31.589844 72.199219 29.847656 74.351562 28.949219 C 76.097656 28.21875 78.113281 28.011719 79.898438 28.648438 C 81.683594 29.28125 83.179688 30.832031 83.503906 32.703125 C 83.824219 34.574219 82.792969 36.660156 81.019531 37.328125 C 79.746094 37.804688 78.105469 37.644531 77.273438 38.722656 C 76.429688 39.816406 77.035156 41.40625 77.800781 42.554688 L 77.746094 42.609375 C 75.246094 42.636719 72.542969 42.152344 70.824219 40.335938 C 70.636719 40.140625 70.464844 39.925781 70.308594 39.703125 C 70.253906 39.789062 70.199219 39.871094 70.140625 39.949219 C 69.273438 41.101562 67.917969 41.757812 66.621094 42.394531 C 65.328125 43.03125 63.988281 43.75 63.210938 44.964844 C 61.808594 47.164062 62.730469 50.125 61.925781 52.605469 C 61.195312 54.871094 59.125 56.433594 56.75 56.511719 C 54.375 56.585938 52.207031 55.164062 51.328125 52.953125 C 53.515625 53.132812 55.453125 51.410156 56.449219 49.453125 Z M 56.449219 49.453125 "/>
<path style=" stroke:none;fill-rule:nonzero;fill:rgb(100%,71.764706%,71.764706%);fill-opacity:1;" d="M 90.890625 80.214844 C 91.019531 79.617188 90.878906 78.996094 90.507812 78.515625 C 90.136719 78.035156 89.570312 77.742188 88.960938 77.71875 L 87.332031 73.308594 L 84.417969 73.648438 L 86.804688 79.84375 C 86.835938 80.890625 87.640625 81.75 88.683594 81.84375 C 89.726562 81.941406 90.671875 81.238281 90.890625 80.214844 Z M 90.890625 80.214844 "/>
<path style=" stroke:none;fill-rule:nonzero;fill:rgb(42.352941%,38.823529%,100%);fill-opacity:1;" d="M 70.5625 65.488281 L 69.007812 57.984375 L 68.515625 52.273438 C 68.238281 49.03125 69.144531 45.800781 71.0625 43.175781 L 71.558594 42.496094 L 79.933594 45.476562 L 84.019531 50.871094 C 86.511719 53.378906 84.558594 55.785156 84.289062 56.09375 L 84.203125 63.675781 L 84.109375 63.6875 Z M 70.5625 65.488281 "/>
<path style=" stroke:none;fill-rule:nonzero;fill:rgb(42.352941%,38.823529%,100%);fill-opacity:1;" d="M 85.984375 78.644531 L 79.757812 64.261719 L 78.851562 51.085938 L 78.667969 48.316406 C 78.574219 46.894531 79.625 45.652344 81.042969 45.511719 C 82.460938 45.367188 83.734375 46.378906 83.921875 47.792969 L 85.882812 62.480469 L 89.257812 77.132812 Z M 85.984375 78.644531 "/>
<path style=" stroke:none;fill-rule:nonzero;fill:rgb(79.607843%,79.607843%,79.607843%);fill-opacity:1;" d="M 134.5 129.933594 L 0.25 129.933594 C 0.113281 129.933594 0 129.820312 0 129.683594 C 0 129.542969 0.113281 129.433594 0.25 129.433594 L 134.5 129.433594 C 134.636719 129.433594 134.75 129.542969 134.75 129.683594 C 134.75 129.820312 134.636719 129.933594 134.5 129.933594 Z M 134.5 129.933594 "/>
</g>
</svg>
