<?xml version="1.0" encoding="UTF-8"?>
<svg xmlns="http://www.w3.org/2000/svg" xmlns:xlink="http://www.w3.org/1999/xlink" width="750pt" height="426pt" viewBox="0 0 750 426" version="1.1">
<g id="surface1">
<path style=" stroke:none;fill-rule:nonzero;fill:rgb(100%,100%,100%);fill-opacity:1;" d="M 315.75 0.84375 L 749.339844 0.84375 L 749.339844 282.835938 L 315.75 282.835938 Z M 315.75 0.84375 "/>
<path style=" stroke:none;fill-rule:nonzero;fill:rgb(89.411765%,89.411765%,89.411765%);fill-opacity:1;" d="M 750.179688 283.679688 L 314.90625 283.679688 L 314.90625 0 L 750.179688 0 Z M 316.59375 281.992188 L 748.496094 281.992188 L 748.496094 1.6875 L 316.59375 1.6875 Z M 316.59375 281.992188 "/>
<path style=" stroke:none;fill-rule:nonzero;fill:rgb(24.705882%,23.921569%,33.72549%);fill-opacity:1;" d="M 505.296875 28.425781 C 518.03125 28.640625 518.027344 47.605469 505.292969 47.820312 C 492.558594 47.601562 492.5625 28.640625 505.296875 28.425781 Z M 505.296875 28.425781 "/>
<path style=" stroke:none;fill-rule:nonzero;fill:rgb(42.352941%,38.823529%,100%);fill-opacity:1;" d="M 532.542969 28.425781 C 545.28125 28.640625 545.277344 47.605469 532.542969 47.820312 C 519.808594 47.601562 519.8125 28.640625 532.542969 28.425781 Z M 532.542969 28.425781 "/>
<path style=" stroke:none;fill-rule:nonzero;fill:rgb(79.215686%,79.215686%,79.215686%);fill-opacity:1;" d="M 559.792969 28.425781 C 572.527344 28.640625 572.527344 47.605469 559.792969 47.820312 C 547.058594 47.601562 547.058594 28.640625 559.792969 28.425781 Z M 559.792969 28.425781 "/>
<path style=" stroke:none;fill-rule:nonzero;fill:rgb(79.215686%,79.215686%,79.215686%);fill-opacity:1;" d="M 390.644531 102.683594 L 477.359375 102.683594 L 477.359375 103.738281 L 390.644531 103.738281 Z M 390.644531 102.683594 "/>
<path style=" stroke:none;fill-rule:nonzero;fill:rgb(79.215686%,79.215686%,79.215686%);fill-opacity:1;" d="M 674.972656 255.253906 L 555.667969 255.253906 L 555.667969 143.71875 L 674.972656 143.71875 Z M 556.71875 254.203125 L 673.921875 254.203125 L 673.921875 144.773438 L 556.71875 144.773438 Z M 556.71875 254.203125 "/>
<path style=" stroke:none;fill-rule:nonzero;fill:rgb(79.215686%,79.215686%,79.215686%);fill-opacity:1;" d="M 555.835938 144.632812 L 556.554688 143.863281 L 674.804688 254.34375 L 674.085938 255.113281 Z M 555.835938 144.632812 "/>
<path style=" stroke:none;fill-rule:nonzero;fill:rgb(79.215686%,79.215686%,79.215686%);fill-opacity:1;" d="M 555.832031 254.339844 L 674.089844 143.863281 L 674.808594 144.632812 L 556.550781 255.109375 Z M 555.832031 254.339844 "/>
<path style=" stroke:none;fill-rule:nonzero;fill:rgb(79.215686%,79.215686%,79.215686%);fill-opacity:1;" d="M 674.972656 87.953125 L 390.117188 87.953125 L 390.117188 68.488281 L 674.972656 68.488281 Z M 391.167969 86.902344 L 673.921875 86.902344 L 673.921875 69.539062 L 391.167969 69.539062 Z M 391.167969 86.902344 "/>
<path style=" stroke:none;fill-rule:nonzero;fill:rgb(79.215686%,79.215686%,79.215686%);fill-opacity:1;" d="M 495.476562 173.996094 L 390.960938 173.996094 L 390.960938 154.53125 L 495.476562 154.53125 Z M 392.011719 172.945312 L 494.425781 172.945312 L 494.425781 155.582031 L 392.011719 155.582031 Z M 392.011719 172.945312 "/>
<path style=" stroke:none;fill-rule:nonzero;fill:rgb(79.215686%,79.215686%,79.215686%);fill-opacity:1;" d="M 495.476562 206.894531 L 390.960938 206.894531 L 390.960938 187.429688 L 495.476562 187.429688 Z M 392.011719 205.84375 L 494.425781 205.84375 L 494.425781 188.484375 L 392.011719 188.484375 Z M 392.011719 205.84375 "/>
<path style=" stroke:none;fill-rule:nonzero;fill:rgb(79.215686%,79.215686%,79.215686%);fill-opacity:1;" d="M 495.476562 239.796875 L 390.960938 239.796875 L 390.960938 220.328125 L 495.476562 220.328125 Z M 392.011719 238.742188 L 494.425781 238.742188 L 494.425781 221.382812 L 392.011719 221.382812 Z M 392.011719 238.742188 "/>
<path style=" stroke:none;fill-rule:nonzero;fill:rgb(42.352941%,38.823529%,100%);fill-opacity:1;" d="M 418.332031 126.804688 L 390.300781 126.804688 C 392.464844 118.085938 392.203125 108.65625 390.300781 98.742188 L 418.332031 98.742188 C 414.40625 107.683594 414.40625 117.863281 418.332031 126.804688 Z M 418.332031 126.804688 "/>
<path style=" stroke:none;fill-rule:nonzero;fill:rgb(100%,100%,100%);fill-opacity:1;" d="M 394.546875 104.695312 L 411.535156 104.695312 L 411.535156 108.097656 L 394.546875 108.097656 Z M 394.546875 104.695312 "/>
<path style=" stroke:none;fill-rule:nonzero;fill:rgb(100%,100%,100%);fill-opacity:1;" d="M 394.546875 111.5 L 411.535156 111.5 L 411.535156 114.898438 L 394.546875 114.898438 Z M 394.546875 111.5 "/>
<path style=" stroke:none;fill-rule:nonzero;fill:rgb(100%,100%,100%);fill-opacity:1;" d="M 394.546875 118.300781 L 411.535156 118.300781 L 411.535156 121.703125 L 394.546875 121.703125 Z M 394.546875 118.300781 "/>
<path style=" stroke:none;fill-rule:nonzero;fill:rgb(42.352941%,38.823529%,100%);fill-opacity:1;" d="M 629.433594 169.183594 L 601.398438 169.183594 C 603.5625 160.464844 603.304688 151.035156 601.398438 141.121094 L 629.433594 141.121094 C 625.507812 150.0625 625.507812 160.242188 629.433594 169.183594 Z M 629.433594 169.183594 "/>
<path style=" stroke:none;fill-rule:nonzero;fill:rgb(100%,100%,100%);fill-opacity:1;" d="M 605.648438 147.074219 L 622.636719 147.074219 L 622.636719 150.476562 L 605.648438 150.476562 Z M 605.648438 147.074219 "/>
<path style=" stroke:none;fill-rule:nonzero;fill:rgb(100%,100%,100%);fill-opacity:1;" d="M 605.648438 153.875 L 622.636719 153.875 L 622.636719 157.277344 L 605.648438 157.277344 Z M 605.648438 153.875 "/>
<path style=" stroke:none;fill-rule:nonzero;fill:rgb(100%,100%,100%);fill-opacity:1;" d="M 605.648438 160.679688 L 622.636719 160.679688 L 622.636719 164.082031 L 605.648438 164.082031 Z M 605.648438 160.679688 "/>
<path style=" stroke:none;fill-rule:nonzero;fill:rgb(42.352941%,38.823529%,100%);fill-opacity:1;" d="M 665.472656 109.050781 L 637.441406 109.050781 C 639.605469 100.335938 639.34375 90.902344 637.441406 80.992188 L 665.472656 80.992188 C 661.550781 89.933594 661.550781 100.109375 665.472656 109.050781 Z M 665.472656 109.050781 "/>
<path style=" stroke:none;fill-rule:nonzero;fill:rgb(100%,100%,100%);fill-opacity:1;" d="M 641.6875 86.941406 L 658.679688 86.941406 L 658.679688 90.34375 L 641.6875 90.34375 Z M 641.6875 86.941406 "/>
<path style=" stroke:none;fill-rule:nonzero;fill:rgb(100%,100%,100%);fill-opacity:1;" d="M 641.6875 93.746094 L 658.679688 93.746094 L 658.679688 97.148438 L 641.6875 97.148438 Z M 641.6875 93.746094 "/>
<path style=" stroke:none;fill-rule:nonzero;fill:rgb(100%,100%,100%);fill-opacity:1;" d="M 641.6875 100.546875 L 658.679688 100.546875 L 658.679688 103.949219 L 641.6875 103.949219 Z M 641.6875 100.546875 "/>
<path style=" stroke:none;fill-rule:nonzero;fill:rgb(18.431373%,18.039216%,25.490196%);fill-opacity:1;" d="M 174.101562 129.445312 L 126.066406 129.445312 L 126.066406 103.714844 C 126.066406 90.4375 136.820312 79.671875 150.082031 79.671875 C 163.347656 79.671875 174.101562 90.4375 174.101562 103.714844 Z M 174.101562 129.445312 "/>
<path style=" stroke:none;fill-rule:nonzero;fill:rgb(100%,71.372549%,71.372549%);fill-opacity:1;" d="M 195.542969 415.703125 L 205.871094 415.703125 L 210.789062 375.8125 L 195.539062 375.8125 Z M 195.542969 415.703125 "/>
<path style=" stroke:none;fill-rule:nonzero;fill:rgb(18.431373%,18.039216%,25.490196%);fill-opacity:1;" d="M 192.90625 412.324219 L 213.253906 412.324219 C 220.414062 412.324219 226.21875 418.136719 226.21875 425.304688 L 226.21875 425.726562 L 192.90625 425.726562 Z M 192.90625 412.324219 "/>
<path style=" stroke:none;fill-rule:nonzero;fill:rgb(100%,71.372549%,71.372549%);fill-opacity:1;" d="M 72.042969 401.898438 L 81.039062 406.984375 L 104.910156 374.667969 L 91.632812 367.164062 Z M 72.042969 401.898438 "/>
<path style=" stroke:none;fill-rule:nonzero;fill:rgb(18.431373%,18.039216%,25.490196%);fill-opacity:1;" d="M 71.40625 397.664062 L 89.121094 407.675781 L 89.125 407.675781 C 95.359375 411.199219 97.558594 419.117188 94.039062 425.359375 L 93.832031 425.726562 L 64.824219 409.332031 Z M 71.40625 397.664062 "/>
<path style=" stroke:none;fill-rule:nonzero;fill:rgb(18.431373%,18.039216%,25.490196%);fill-opacity:1;" d="M 138.070312 236.300781 L 137.273438 240.289062 C 137.273438 240.289062 134.878906 242.683594 136.078125 243.882812 C 137.273438 245.078125 136.875 250.664062 136.875 250.664062 C 136.203125 260.851562 122.90625 318.097656 120.53125 329.277344 C 120.53125 329.277344 102.191406 341.246094 87.84375 364.792969 C 73.492188 388.335938 73.09375 394.320312 73.09375 394.320312 L 89.039062 401.105469 L 128.902344 352.820312 C 128.902344 352.820312 140.0625 346.035156 144.050781 340.050781 C 148.035156 334.066406 172.75 272.214844 172.75 272.214844 L 186.703125 336.859375 C 186.703125 336.859375 185.90625 360.402344 189.492188 375.566406 C 191.699219 385.136719 193.035156 394.886719 193.480469 404.695312 L 212.214844 402.699219 C 212.214844 402.699219 211.019531 346.035156 209.027344 340.050781 C 209.027344 340.050781 217.398438 271.015625 200.65625 243.484375 L 187.160156 207.472656 L 173.945312 202.382812 Z M 138.070312 236.300781 "/>
<path style=" stroke:none;fill-rule:nonzero;fill:rgb(100%,72.156863%,72.156863%);fill-opacity:1;" d="M 149.835938 85.960938 C 174.988281 86.390625 174.984375 123.84375 149.835938 124.269531 C 124.683594 123.839844 124.6875 86.390625 149.835938 85.960938 Z M 149.835938 85.960938 "/>
<path style=" stroke:none;fill-rule:nonzero;fill:rgb(18.431373%,18.039216%,25.490196%);fill-opacity:1;" d="M 169.191406 104.121094 L 164.917969 104.121094 L 163.753906 101.210938 L 164.335938 104.121094 L 140.957031 104.121094 L 141.71875 98.027344 L 136.035156 104.121094 L 130.363281 104.121094 L 130.363281 100.820312 C 130.351562 93.867188 134.050781 87.4375 140.0625 83.957031 C 146.074219 80.480469 153.484375 80.480469 159.496094 83.957031 C 165.507812 87.4375 169.207031 93.867188 169.191406 100.820312 Z M 169.191406 104.121094 "/>
<path style=" stroke:none;fill-rule:nonzero;fill:rgb(89.411765%,89.411765%,89.411765%);fill-opacity:1;" d="M 175.769531 135.457031 L 128.238281 135.84375 L 138.285156 237.839844 C 138.285156 237.839844 193.867188 234.90625 193.902344 217.921875 L 188.695312 202.828125 Z M 175.769531 135.457031 "/>
<path style=" stroke:none;fill-rule:nonzero;fill:rgb(100%,100%,100%);fill-opacity:1;" d="M 264.230469 313.433594 L 98.539062 347.78125 C 96.84375 348.128906 94.890625 345.601562 94.167969 342.132812 L 76.753906 257.949219 C 76.035156 254.480469 76.828125 251.386719 78.523438 251.027344 L 244.214844 216.679688 C 245.910156 216.335938 247.863281 218.859375 248.582031 222.328125 L 265.996094 306.511719 C 266.714844 309.984375 265.921875 313.078125 264.230469 313.433594 Z M 264.230469 313.433594 "/>
<path style=" stroke:none;fill-rule:nonzero;fill:rgb(94.117647%,94.117647%,94.117647%);fill-opacity:1;" d="M 153.5 273.3125 C 153.5 281.492188 146.875 288.125 138.703125 288.125 C 130.53125 288.125 123.90625 281.492188 123.90625 273.3125 C 123.90625 265.132812 130.53125 258.5 138.703125 258.5 C 146.875 258.5 153.5 265.132812 153.5 273.3125 Z M 153.5 273.3125 "/>
<path style=" stroke:none;fill-rule:nonzero;fill:rgb(89.411765%,89.411765%,89.411765%);fill-opacity:1;" d="M 193.386719 308.589844 L 122.308594 323.324219 C 122.21875 323.34375 122.128906 323.351562 122.039062 323.355469 L 143.597656 258.101562 C 143.863281 257.273438 144.550781 256.65625 145.398438 256.480469 C 146.246094 256.304688 147.125 256.597656 147.695312 257.25 L 178.347656 291.6875 L 179.816406 293.335938 Z M 193.386719 308.589844 "/>
<path style=" stroke:none;fill-rule:nonzero;fill:rgb(89.411765%,89.411765%,89.411765%);fill-opacity:1;" d="M 232.960938 300.386719 L 171.484375 313.128906 L 179.8125 293.339844 L 180.410156 291.914062 L 191.265625 266.125 C 191.675781 265.308594 192.410156 264.710938 193.292969 264.472656 C 194.171875 264.234375 195.109375 264.382812 195.871094 264.878906 C 195.972656 264.949219 196.066406 265.027344 196.152344 265.109375 Z M 232.960938 300.386719 "/>
<path style=" stroke:none;fill-rule:nonzero;fill:rgb(79.215686%,79.215686%,79.215686%);fill-opacity:1;" d="M 264.230469 313.433594 L 98.539062 347.78125 C 96.84375 348.128906 94.890625 345.601562 94.167969 342.132812 L 76.753906 257.949219 C 76.035156 254.480469 76.828125 251.386719 78.523438 251.027344 L 244.214844 216.679688 C 245.910156 216.335938 247.863281 218.859375 248.582031 222.328125 L 265.996094 306.511719 C 266.714844 309.984375 265.921875 313.078125 264.230469 313.433594 Z M 79.042969 253.542969 C 78.027344 253.753906 77.550781 255.613281 77.980469 257.695312 L 95.394531 341.878906 C 95.828125 343.960938 97 345.476562 98.015625 345.269531 L 263.710938 310.921875 C 264.726562 310.710938 265.199219 308.851562 264.769531 306.765625 L 247.355469 222.582031 C 246.925781 220.503906 245.75 218.984375 244.734375 219.195312 Z M 79.042969 253.542969 "/>
<path style=" stroke:none;fill-rule:nonzero;fill:rgb(100%,71.372549%,71.372549%);fill-opacity:1;" d="M 215.207031 235.515625 C 213.089844 234.519531 211.523438 232.636719 210.925781 230.375 C 210.328125 228.109375 210.761719 225.699219 212.113281 223.789062 L 202.488281 208.492188 L 210.34375 200.371094 L 223.636719 222.160156 C 226.761719 224.699219 227.496094 229.175781 225.347656 232.585938 C 223.195312 235.992188 218.839844 237.25 215.207031 235.515625 Z M 215.207031 235.515625 "/>
<path style=" stroke:none;fill-rule:nonzero;fill:rgb(89.411765%,89.411765%,89.411765%);fill-opacity:1;" d="M 168.46875 139.476562 L 175.363281 134.925781 C 175.363281 134.925781 180.683594 136.121094 186.34375 147.019531 C 192.003906 157.917969 214.828125 206.632812 214.828125 206.632812 L 205.449219 216.167969 L 180.421875 177.949219 Z M 168.46875 139.476562 "/>
<path style=" stroke:none;fill-rule:nonzero;fill:rgb(100%,71.372549%,71.372549%);fill-opacity:1;" d="M 126.203125 247.703125 C 127.683594 245.886719 128.285156 243.511719 127.84375 241.214844 C 127.402344 238.914062 125.96875 236.929688 123.925781 235.789062 L 125.992188 217.832031 L 115.394531 213.914062 L 112.835938 239.3125 C 111.113281 242.957031 112.386719 247.3125 115.796875 249.453125 C 119.210938 251.59375 123.679688 250.839844 126.203125 247.703125 Z M 126.203125 247.703125 "/>
<path style=" stroke:none;fill-rule:nonzero;fill:rgb(89.411765%,89.411765%,89.411765%);fill-opacity:1;" d="M 134.492188 144.628906 L 128.238281 135.878906 C 128.238281 135.878906 123.960938 134.925781 118.902344 140.832031 C 113.847656 146.738281 110.898438 220.546875 110.898438 220.546875 L 129.4375 224.765625 L 140.390625 172.464844 Z M 134.492188 144.628906 "/>
<path style=" stroke:none;fill-rule:nonzero;fill:rgb(79.215686%,79.215686%,79.215686%);fill-opacity:1;" d="M 321.910156 425.957031 L 0.84375 425.957031 C 0.378906 425.957031 0 425.578125 0 425.113281 C 0 424.648438 0.378906 424.269531 0.84375 424.269531 L 321.910156 424.269531 C 322.375 424.269531 322.753906 424.648438 322.753906 425.113281 C 322.753906 425.578125 322.375 425.957031 321.910156 425.957031 Z M 321.910156 425.957031 "/>
<path style=" stroke:none;fill-rule:nonzero;fill:rgb(42.352941%,38.823529%,100%);fill-opacity:1;" d="M 115.328125 273.316406 L 87.90625 279.144531 C 88.214844 270.164062 86 260.996094 82.082031 251.695312 L 109.503906 245.867188 C 107.519531 255.425781 109.632812 265.382812 115.328125 273.316406 Z M 115.328125 273.316406 "/>
<path style=" stroke:none;fill-rule:nonzero;fill:rgb(100%,100%,100%);fill-opacity:1;" d="M 87.472656 256.632812 L 104.09375 253.101562 L 104.796875 256.429688 L 88.179688 259.960938 Z M 87.472656 256.632812 "/>
<path style=" stroke:none;fill-rule:nonzero;fill:rgb(100%,100%,100%);fill-opacity:1;" d="M 88.882812 263.289062 L 105.503906 259.753906 L 106.210938 263.082031 L 89.589844 266.613281 Z M 88.882812 263.289062 "/>
<path style=" stroke:none;fill-rule:nonzero;fill:rgb(100%,100%,100%);fill-opacity:1;" d="M 90.296875 269.941406 L 106.914062 266.410156 L 107.621094 269.738281 L 91 273.269531 Z M 90.296875 269.941406 "/>
</g>
</svg>
