<?xml version="1.0" encoding="UTF-8"?>
<svg xmlns="http://www.w3.org/2000/svg" xmlns:xlink="http://www.w3.org/1999/xlink" width="499pt" height="284pt" viewBox="0 0 499 284" version="1.1">
<g id="surface1">
<path style=" stroke:none;fill-rule:nonzero;fill:rgb(100%,100%,100%);fill-opacity:1;" d="M 209.96875 0.5625 L 498.296875 0.5625 L 498.296875 188.378906 L 209.96875 188.378906 Z M 209.96875 0.5625 "/>
<path style=" stroke:none;fill-rule:nonzero;fill:rgb(89.411765%,89.411765%,89.411765%);fill-opacity:1;" d="M 498.851562 188.941406 L 209.40625 188.941406 L 209.40625 0 L 498.851562 0 Z M 210.527344 187.820312 L 497.734375 187.820312 L 497.734375 1.125 L 210.527344 1.125 Z M 210.527344 187.820312 "/>
<path style=" stroke:none;fill-rule:nonzero;fill:rgb(24.705882%,23.921569%,33.72549%);fill-opacity:1;" d="M 336.011719 18.933594 C 344.480469 19.074219 344.476562 31.707031 336.007812 31.851562 C 327.539062 31.703125 327.542969 19.074219 336.011719 18.933594 Z M 336.011719 18.933594 "/>
<path style=" stroke:none;fill-rule:nonzero;fill:rgb(42.352941%,38.823529%,100%);fill-opacity:1;" d="M 354.128906 18.933594 C 362.601562 19.074219 362.597656 31.707031 354.128906 31.851562 C 345.660156 31.703125 345.664062 19.074219 354.128906 18.933594 Z M 354.128906 18.933594 "/>
<path style=" stroke:none;fill-rule:nonzero;fill:rgb(79.215686%,79.215686%,79.215686%);fill-opacity:1;" d="M 372.25 18.933594 C 380.71875 19.074219 380.71875 31.707031 372.25 31.851562 C 363.78125 31.703125 363.78125 19.074219 372.25 18.933594 Z M 372.25 18.933594 "/>
<path style=" stroke:none;fill-rule:nonzero;fill:rgb(79.215686%,79.215686%,79.215686%);fill-opacity:1;" d="M 259.769531 68.390625 L 317.433594 68.390625 L 317.433594 69.09375 L 259.769531 69.09375 Z M 259.769531 68.390625 "/>
<path style=" stroke:none;fill-rule:nonzero;fill:rgb(79.215686%,79.215686%,79.215686%);fill-opacity:1;" d="M 448.84375 170.007812 L 369.507812 170.007812 L 369.507812 95.722656 L 448.84375 95.722656 Z M 370.207031 169.308594 L 448.144531 169.308594 L 448.144531 96.425781 L 370.207031 96.425781 Z M 370.207031 169.308594 "/>
<path style=" stroke:none;fill-rule:nonzero;fill:rgb(79.215686%,79.215686%,79.215686%);fill-opacity:1;" d="M 369.617188 96.332031 L 370.097656 95.820312 L 448.730469 169.402344 L 448.253906 169.914062 Z M 369.617188 96.332031 "/>
<path style=" stroke:none;fill-rule:nonzero;fill:rgb(79.215686%,79.215686%,79.215686%);fill-opacity:1;" d="M 369.617188 169.402344 L 448.253906 95.820312 L 448.734375 96.332031 L 370.09375 169.914062 Z M 369.617188 169.402344 "/>
<path style=" stroke:none;fill-rule:nonzero;fill:rgb(79.215686%,79.215686%,79.215686%);fill-opacity:1;" d="M 448.84375 58.582031 L 259.417969 58.582031 L 259.417969 45.617188 L 448.84375 45.617188 Z M 260.117188 57.878906 L 448.144531 57.878906 L 448.144531 46.316406 L 260.117188 46.316406 Z M 260.117188 57.878906 "/>
<path style=" stroke:none;fill-rule:nonzero;fill:rgb(79.215686%,79.215686%,79.215686%);fill-opacity:1;" d="M 329.480469 115.886719 L 259.980469 115.886719 L 259.980469 102.925781 L 329.480469 102.925781 Z M 260.679688 115.1875 L 328.78125 115.1875 L 328.78125 103.625 L 260.679688 103.625 Z M 260.679688 115.1875 "/>
<path style=" stroke:none;fill-rule:nonzero;fill:rgb(79.215686%,79.215686%,79.215686%);fill-opacity:1;" d="M 329.480469 137.800781 L 259.980469 137.800781 L 259.980469 124.835938 L 329.480469 124.835938 Z M 260.679688 137.101562 L 328.78125 137.101562 L 328.78125 125.539062 L 260.679688 125.539062 Z M 260.679688 137.101562 "/>
<path style=" stroke:none;fill-rule:nonzero;fill:rgb(79.215686%,79.215686%,79.215686%);fill-opacity:1;" d="M 329.480469 159.714844 L 259.980469 159.714844 L 259.980469 146.746094 L 329.480469 146.746094 Z M 260.679688 159.011719 L 328.78125 159.011719 L 328.78125 147.449219 L 260.679688 147.449219 Z M 260.679688 159.011719 "/>
<path style=" stroke:none;fill-rule:nonzero;fill:rgb(42.352941%,38.823529%,100%);fill-opacity:1;" d="M 278.183594 84.457031 L 259.542969 84.457031 C 260.980469 78.648438 260.808594 72.371094 259.542969 65.765625 L 278.183594 65.765625 C 275.570312 71.722656 275.570312 78.5 278.183594 84.457031 Z M 278.183594 84.457031 "/>
<path style=" stroke:none;fill-rule:nonzero;fill:rgb(100%,100%,100%);fill-opacity:1;" d="M 262.367188 69.730469 L 273.660156 69.730469 L 273.660156 71.996094 L 262.367188 71.996094 Z M 262.367188 69.730469 "/>
<path style=" stroke:none;fill-rule:nonzero;fill:rgb(100%,100%,100%);fill-opacity:1;" d="M 262.367188 74.261719 L 273.660156 74.261719 L 273.660156 76.527344 L 262.367188 76.527344 Z M 262.367188 74.261719 "/>
<path style=" stroke:none;fill-rule:nonzero;fill:rgb(100%,100%,100%);fill-opacity:1;" d="M 262.367188 78.792969 L 273.660156 78.792969 L 273.660156 81.058594 L 262.367188 81.058594 Z M 262.367188 78.792969 "/>
<path style=" stroke:none;fill-rule:nonzero;fill:rgb(42.352941%,38.823529%,100%);fill-opacity:1;" d="M 418.558594 112.683594 L 399.917969 112.683594 C 401.355469 106.875 401.183594 100.59375 399.917969 93.992188 L 418.558594 93.992188 C 415.949219 99.949219 415.949219 106.726562 418.558594 112.683594 Z M 418.558594 112.683594 "/>
<path style=" stroke:none;fill-rule:nonzero;fill:rgb(100%,100%,100%);fill-opacity:1;" d="M 402.742188 97.957031 L 414.039062 97.957031 L 414.039062 100.222656 L 402.742188 100.222656 Z M 402.742188 97.957031 "/>
<path style=" stroke:none;fill-rule:nonzero;fill:rgb(100%,100%,100%);fill-opacity:1;" d="M 402.742188 102.488281 L 414.039062 102.488281 L 414.039062 104.753906 L 402.742188 104.753906 Z M 402.742188 102.488281 "/>
<path style=" stroke:none;fill-rule:nonzero;fill:rgb(100%,100%,100%);fill-opacity:1;" d="M 402.742188 107.019531 L 414.039062 107.019531 L 414.039062 109.285156 L 402.742188 109.285156 Z M 402.742188 107.019531 "/>
<path style=" stroke:none;fill-rule:nonzero;fill:rgb(42.352941%,38.823529%,100%);fill-opacity:1;" d="M 442.523438 72.632812 L 423.886719 72.632812 C 425.324219 66.828125 425.148438 60.542969 423.886719 53.945312 L 442.523438 53.945312 C 439.917969 59.898438 439.917969 66.675781 442.523438 72.632812 Z M 442.523438 72.632812 "/>
<path style=" stroke:none;fill-rule:nonzero;fill:rgb(100%,100%,100%);fill-opacity:1;" d="M 426.707031 57.90625 L 438.007812 57.90625 L 438.007812 60.171875 L 426.707031 60.171875 Z M 426.707031 57.90625 "/>
<path style=" stroke:none;fill-rule:nonzero;fill:rgb(100%,100%,100%);fill-opacity:1;" d="M 426.707031 62.4375 L 438.007812 62.4375 L 438.007812 64.703125 L 426.707031 64.703125 Z M 426.707031 62.4375 "/>
<path style=" stroke:none;fill-rule:nonzero;fill:rgb(100%,100%,100%);fill-opacity:1;" d="M 426.707031 66.96875 L 438.007812 66.96875 L 438.007812 69.234375 L 426.707031 69.234375 Z M 426.707031 66.96875 "/>
<path style=" stroke:none;fill-rule:nonzero;fill:rgb(18.431373%,18.039216%,25.490196%);fill-opacity:1;" d="M 115.773438 86.214844 L 83.832031 86.214844 L 83.832031 69.078125 C 83.832031 60.234375 90.984375 53.066406 99.800781 53.066406 C 108.621094 53.066406 115.773438 60.234375 115.773438 69.078125 Z M 115.773438 86.214844 "/>
<path style=" stroke:none;fill-rule:nonzero;fill:rgb(100%,71.372549%,71.372549%);fill-opacity:1;" d="M 130.03125 276.875 L 136.898438 276.875 L 140.171875 250.304688 L 130.03125 250.304688 Z M 130.03125 276.875 "/>
<path style=" stroke:none;fill-rule:nonzero;fill:rgb(18.431373%,18.039216%,25.490196%);fill-opacity:1;" d="M 128.277344 274.625 L 141.808594 274.625 C 146.570312 274.625 150.429688 278.496094 150.429688 283.269531 L 150.429688 283.550781 L 128.277344 283.550781 Z M 128.277344 274.625 "/>
<path style=" stroke:none;fill-rule:nonzero;fill:rgb(100%,71.372549%,71.372549%);fill-opacity:1;" d="M 47.90625 267.679688 L 53.890625 271.070312 L 69.761719 249.542969 L 60.933594 244.546875 Z M 47.90625 267.679688 "/>
<path style=" stroke:none;fill-rule:nonzero;fill:rgb(18.431373%,18.039216%,25.490196%);fill-opacity:1;" d="M 47.484375 264.859375 L 59.261719 271.527344 L 59.265625 271.527344 C 63.410156 273.875 64.875 279.148438 62.535156 283.308594 L 62.394531 283.550781 L 43.105469 272.632812 Z M 47.484375 264.859375 "/>
<path style=" stroke:none;fill-rule:nonzero;fill:rgb(18.431373%,18.039216%,25.490196%);fill-opacity:1;" d="M 91.8125 157.386719 L 91.285156 160.042969 C 91.285156 160.042969 89.691406 161.636719 90.488281 162.4375 C 91.285156 163.230469 91.019531 166.953125 91.019531 166.953125 C 90.570312 173.738281 81.730469 211.867188 80.152344 219.3125 C 80.152344 219.3125 67.957031 227.285156 58.414062 242.96875 C 48.871094 258.648438 48.605469 262.632812 48.605469 262.632812 L 59.210938 267.152344 L 85.71875 234.992188 C 85.71875 234.992188 93.136719 230.472656 95.789062 226.488281 C 98.441406 222.503906 114.875 181.304688 114.875 181.304688 L 124.152344 224.363281 C 124.152344 224.363281 123.625 240.042969 126.007812 250.144531 C 127.476562 256.515625 128.363281 263.011719 128.660156 269.542969 L 141.117188 268.214844 C 141.117188 268.214844 140.324219 230.472656 139 226.488281 C 139 226.488281 144.566406 180.507812 133.433594 162.171875 L 124.457031 138.183594 L 115.671875 134.796875 Z M 91.8125 157.386719 "/>
<path style=" stroke:none;fill-rule:nonzero;fill:rgb(100%,72.156863%,72.156863%);fill-opacity:1;" d="M 99.636719 57.253906 C 116.363281 57.539062 116.359375 82.484375 99.636719 82.769531 C 82.910156 82.484375 82.914062 57.539062 99.636719 57.253906 Z M 99.636719 57.253906 "/>
<path style=" stroke:none;fill-rule:nonzero;fill:rgb(18.431373%,18.039216%,25.490196%);fill-opacity:1;" d="M 112.507812 69.347656 L 109.667969 69.347656 L 108.894531 67.410156 L 109.28125 69.347656 L 93.734375 69.347656 L 94.238281 65.289062 L 90.460938 69.347656 L 86.6875 69.347656 L 86.6875 67.152344 C 86.679688 62.519531 89.140625 58.238281 93.136719 55.917969 C 97.136719 53.601562 102.0625 53.601562 106.0625 55.917969 C 110.058594 58.238281 112.519531 62.519531 112.507812 67.152344 Z M 112.507812 69.347656 "/>
<path style=" stroke:none;fill-rule:nonzero;fill:rgb(89.411765%,89.411765%,89.411765%);fill-opacity:1;" d="M 116.882812 90.21875 L 85.277344 90.476562 L 91.957031 158.410156 C 91.957031 158.410156 128.917969 156.457031 128.941406 145.144531 L 125.476562 135.09375 Z M 116.882812 90.21875 "/>
<path style=" stroke:none;fill-rule:nonzero;fill:rgb(100%,100%,100%);fill-opacity:1;" d="M 175.707031 208.757812 L 65.527344 231.636719 C 64.398438 231.867188 63.101562 230.183594 62.621094 227.875 L 51.039062 171.804688 C 50.5625 169.496094 51.089844 167.433594 52.214844 167.195312 L 162.398438 144.316406 C 163.523438 144.089844 164.824219 145.769531 165.300781 148.078125 L 176.882812 204.148438 C 177.359375 206.460938 176.832031 208.523438 175.707031 208.757812 Z M 175.707031 208.757812 "/>
<path style=" stroke:none;fill-rule:nonzero;fill:rgb(94.117647%,94.117647%,94.117647%);fill-opacity:1;" d="M 102.074219 182.039062 C 102.074219 187.484375 97.667969 191.902344 92.234375 191.902344 C 86.800781 191.902344 82.394531 187.484375 82.394531 182.039062 C 82.394531 176.589844 86.800781 172.171875 92.234375 172.171875 C 97.667969 172.171875 102.074219 176.589844 102.074219 182.039062 Z M 102.074219 182.039062 "/>
<path style=" stroke:none;fill-rule:nonzero;fill:rgb(89.411765%,89.411765%,89.411765%);fill-opacity:1;" d="M 128.597656 205.535156 L 81.332031 215.347656 C 81.273438 215.359375 81.214844 215.367188 81.152344 215.367188 L 95.488281 171.90625 C 95.664062 171.355469 96.125 170.945312 96.6875 170.828125 C 97.25 170.710938 97.835938 170.90625 98.214844 171.339844 L 118.597656 194.277344 L 119.574219 195.375 Z M 128.597656 205.535156 "/>
<path style=" stroke:none;fill-rule:nonzero;fill:rgb(89.411765%,89.411765%,89.411765%);fill-opacity:1;" d="M 154.914062 200.070312 L 114.035156 208.558594 L 119.570312 195.375 L 119.96875 194.425781 L 127.1875 177.25 C 127.460938 176.707031 127.949219 176.308594 128.535156 176.148438 C 129.121094 175.992188 129.742188 176.089844 130.25 176.421875 C 130.316406 176.46875 130.378906 176.519531 130.4375 176.574219 Z M 154.914062 200.070312 "/>
<path style=" stroke:none;fill-rule:nonzero;fill:rgb(79.215686%,79.215686%,79.215686%);fill-opacity:1;" d="M 175.707031 208.757812 L 65.527344 231.636719 C 64.398438 231.867188 63.101562 230.183594 62.621094 227.875 L 51.039062 171.804688 C 50.5625 169.496094 51.089844 167.433594 52.214844 167.195312 L 162.398438 144.316406 C 163.523438 144.089844 164.824219 145.769531 165.300781 148.078125 L 176.882812 204.148438 C 177.359375 206.460938 176.832031 208.523438 175.707031 208.757812 Z M 52.5625 168.871094 C 51.886719 169.011719 51.570312 170.25 51.855469 171.636719 L 63.433594 227.707031 C 63.722656 229.09375 64.503906 230.101562 65.179688 229.964844 L 175.363281 207.085938 C 176.039062 206.945312 176.351562 205.707031 176.066406 204.320312 L 164.484375 148.25 C 164.199219 146.863281 163.417969 145.851562 162.742188 145.992188 Z M 52.5625 168.871094 "/>
<path style=" stroke:none;fill-rule:nonzero;fill:rgb(100%,71.372549%,71.372549%);fill-opacity:1;" d="M 143.109375 156.863281 C 141.699219 156.199219 140.660156 154.945312 140.261719 153.4375 C 139.863281 151.929688 140.152344 150.324219 141.050781 149.054688 L 134.648438 138.863281 L 139.875 133.457031 L 148.714844 147.96875 C 150.792969 149.660156 151.28125 152.640625 149.851562 154.910156 C 148.421875 157.179688 145.523438 158.019531 143.109375 156.863281 Z M 143.109375 156.863281 "/>
<path style=" stroke:none;fill-rule:nonzero;fill:rgb(89.411765%,89.411765%,89.411765%);fill-opacity:1;" d="M 112.027344 92.898438 L 116.613281 89.867188 C 116.613281 89.867188 120.152344 90.664062 123.914062 97.921875 C 127.679688 105.179688 142.855469 137.625 142.855469 137.625 L 136.621094 143.976562 L 119.976562 118.523438 Z M 112.027344 92.898438 "/>
<path style=" stroke:none;fill-rule:nonzero;fill:rgb(100%,71.372549%,71.372549%);fill-opacity:1;" d="M 83.921875 164.980469 C 84.90625 163.769531 85.308594 162.1875 85.011719 160.660156 C 84.71875 159.125 83.765625 157.804688 82.40625 157.046875 L 83.78125 145.085938 L 76.734375 142.476562 L 75.035156 159.390625 C 73.886719 161.820312 74.734375 164.71875 77.003906 166.144531 C 79.273438 167.570312 82.246094 167.070312 83.921875 164.980469 Z M 83.921875 164.980469 "/>
<path style=" stroke:none;fill-rule:nonzero;fill:rgb(89.411765%,89.411765%,89.411765%);fill-opacity:1;" d="M 89.433594 96.328125 L 85.277344 90.5 C 85.277344 90.5 82.429688 89.867188 79.066406 93.800781 C 75.707031 97.734375 73.746094 146.894531 73.746094 146.894531 L 86.074219 149.703125 L 93.355469 114.867188 Z M 89.433594 96.328125 "/>
<path style=" stroke:none;fill-rule:nonzero;fill:rgb(79.215686%,79.215686%,79.215686%);fill-opacity:1;" d="M 214.0625 283.703125 L 0.5625 283.703125 C 0.253906 283.703125 0 283.453125 0 283.144531 C 0 282.832031 0.253906 282.582031 0.5625 282.582031 L 214.0625 282.582031 C 214.371094 282.582031 214.625 282.832031 214.625 283.144531 C 214.625 283.453125 214.371094 283.703125 214.0625 283.703125 Z M 214.0625 283.703125 "/>
<path style=" stroke:none;fill-rule:nonzero;fill:rgb(42.352941%,38.823529%,100%);fill-opacity:1;" d="M 76.691406 182.039062 L 58.457031 185.921875 C 58.660156 179.941406 57.1875 173.835938 54.582031 167.640625 L 72.816406 163.757812 C 71.5 170.125 72.902344 176.757812 76.691406 182.039062 Z M 76.691406 182.039062 "/>
<path style=" stroke:none;fill-rule:nonzero;fill:rgb(100%,100%,100%);fill-opacity:1;" d="M 58.167969 170.929688 L 69.21875 168.574219 L 69.6875 170.792969 L 58.636719 173.144531 Z M 58.167969 170.929688 "/>
<path style=" stroke:none;fill-rule:nonzero;fill:rgb(100%,100%,100%);fill-opacity:1;" d="M 59.105469 175.363281 L 70.15625 173.007812 L 70.628906 175.222656 L 59.574219 177.574219 Z M 59.105469 175.363281 "/>
<path style=" stroke:none;fill-rule:nonzero;fill:rgb(100%,100%,100%);fill-opacity:1;" d="M 60.046875 179.792969 L 71.09375 177.441406 L 71.566406 179.65625 L 60.511719 182.007812 Z M 60.046875 179.792969 "/>
</g>
</svg>
