<?xml version="1.0" encoding="UTF-8"?>
<svg xmlns="http://www.w3.org/2000/svg" xmlns:xlink="http://www.w3.org/1999/xlink" width="374pt" height="213pt" viewBox="0 0 374 213" version="1.1">
<g id="surface1">
<path style=" stroke:none;fill-rule:nonzero;fill:rgb(100%,100%,100%);fill-opacity:1;" d="M 157.371094 0.421875 L 373.472656 0.421875 L 373.472656 141.285156 L 157.371094 141.285156 Z M 157.371094 0.421875 "/>
<path style=" stroke:none;fill-rule:nonzero;fill:rgb(89.411765%,89.411765%,89.411765%);fill-opacity:1;" d="M 373.890625 141.707031 L 156.949219 141.707031 L 156.949219 0 L 373.890625 0 Z M 157.789062 140.863281 L 373.050781 140.863281 L 373.050781 0.84375 L 157.789062 0.84375 Z M 157.789062 140.863281 "/>
<path style=" stroke:none;fill-rule:nonzero;fill:rgb(24.705882%,23.921569%,33.72549%);fill-opacity:1;" d="M 251.839844 14.199219 C 258.1875 14.308594 258.183594 23.78125 251.839844 23.886719 C 245.492188 23.777344 245.492188 14.308594 251.839844 14.199219 Z M 251.839844 14.199219 "/>
<path style=" stroke:none;fill-rule:nonzero;fill:rgb(42.352941%,38.823529%,100%);fill-opacity:1;" d="M 265.417969 14.199219 C 271.769531 14.308594 271.765625 23.78125 265.417969 23.886719 C 259.074219 23.777344 259.074219 14.308594 265.417969 14.199219 Z M 265.417969 14.199219 "/>
<path style=" stroke:none;fill-rule:nonzero;fill:rgb(79.215686%,79.215686%,79.215686%);fill-opacity:1;" d="M 279 14.199219 C 285.347656 14.308594 285.347656 23.78125 279 23.886719 C 272.65625 23.777344 272.65625 14.308594 279 14.199219 Z M 279 14.199219 "/>
<path style=" stroke:none;fill-rule:nonzero;fill:rgb(79.215686%,79.215686%,79.215686%);fill-opacity:1;" d="M 194.699219 51.292969 L 237.917969 51.292969 L 237.917969 51.820312 L 194.699219 51.820312 Z M 194.699219 51.292969 "/>
<path style=" stroke:none;fill-rule:nonzero;fill:rgb(79.215686%,79.215686%,79.215686%);fill-opacity:1;" d="M 336.40625 127.507812 L 276.945312 127.507812 L 276.945312 71.792969 L 336.40625 71.792969 Z M 277.46875 126.980469 L 335.882812 126.980469 L 335.882812 72.320312 L 277.46875 72.320312 Z M 277.46875 126.980469 "/>
<path style=" stroke:none;fill-rule:nonzero;fill:rgb(79.215686%,79.215686%,79.215686%);fill-opacity:1;" d="M 277.027344 72.25 L 277.386719 71.863281 L 336.324219 127.050781 L 335.964844 127.4375 Z M 277.027344 72.25 "/>
<path style=" stroke:none;fill-rule:nonzero;fill:rgb(79.215686%,79.215686%,79.215686%);fill-opacity:1;" d="M 277.027344 127.050781 L 335.96875 71.863281 L 336.324219 72.25 L 277.386719 127.433594 Z M 277.027344 127.050781 "/>
<path style=" stroke:none;fill-rule:nonzero;fill:rgb(79.215686%,79.215686%,79.215686%);fill-opacity:1;" d="M 336.40625 43.933594 L 194.433594 43.933594 L 194.433594 34.210938 L 336.40625 34.210938 Z M 194.957031 43.410156 L 335.882812 43.410156 L 335.882812 34.738281 L 194.957031 34.738281 Z M 194.957031 43.410156 "/>
<path style=" stroke:none;fill-rule:nonzero;fill:rgb(79.215686%,79.215686%,79.215686%);fill-opacity:1;" d="M 246.945312 86.917969 L 194.855469 86.917969 L 194.855469 77.191406 L 246.945312 77.191406 Z M 195.378906 86.390625 L 246.421875 86.390625 L 246.421875 77.71875 L 195.378906 77.71875 Z M 195.378906 86.390625 "/>
<path style=" stroke:none;fill-rule:nonzero;fill:rgb(79.215686%,79.215686%,79.215686%);fill-opacity:1;" d="M 246.945312 103.351562 L 194.855469 103.351562 L 194.855469 93.625 L 246.945312 93.625 Z M 195.378906 102.824219 L 246.421875 102.824219 L 246.421875 94.152344 L 195.378906 94.152344 Z M 195.378906 102.824219 "/>
<path style=" stroke:none;fill-rule:nonzero;fill:rgb(79.215686%,79.215686%,79.215686%);fill-opacity:1;" d="M 246.945312 119.785156 L 194.855469 119.785156 L 194.855469 110.0625 L 246.945312 110.0625 Z M 195.378906 119.257812 L 246.421875 119.257812 L 246.421875 110.585938 L 195.378906 110.585938 Z M 195.378906 119.257812 "/>
<path style=" stroke:none;fill-rule:nonzero;fill:rgb(42.352941%,38.823529%,100%);fill-opacity:1;" d="M 208.496094 63.34375 L 194.527344 63.34375 C 195.605469 58.988281 195.472656 54.277344 194.527344 49.324219 L 208.496094 49.324219 C 206.539062 53.792969 206.539062 58.875 208.496094 63.34375 Z M 208.496094 63.34375 "/>
<path style=" stroke:none;fill-rule:nonzero;fill:rgb(100%,100%,100%);fill-opacity:1;" d="M 196.640625 52.296875 L 205.109375 52.296875 L 205.109375 54 L 196.640625 54 Z M 196.640625 52.296875 "/>
<path style=" stroke:none;fill-rule:nonzero;fill:rgb(100%,100%,100%);fill-opacity:1;" d="M 196.640625 55.699219 L 205.109375 55.699219 L 205.109375 57.394531 L 196.640625 57.394531 Z M 196.640625 55.699219 "/>
<path style=" stroke:none;fill-rule:nonzero;fill:rgb(100%,100%,100%);fill-opacity:1;" d="M 196.640625 59.09375 L 205.109375 59.09375 L 205.109375 60.792969 L 196.640625 60.792969 Z M 196.640625 59.09375 "/>
<path style=" stroke:none;fill-rule:nonzero;fill:rgb(42.352941%,38.823529%,100%);fill-opacity:1;" d="M 313.710938 84.511719 L 299.738281 84.511719 C 300.816406 80.15625 300.6875 75.445312 299.738281 70.496094 L 313.710938 70.496094 C 311.753906 74.960938 311.753906 80.046875 313.710938 84.511719 Z M 313.710938 84.511719 "/>
<path style=" stroke:none;fill-rule:nonzero;fill:rgb(100%,100%,100%);fill-opacity:1;" d="M 301.855469 73.46875 L 310.324219 73.46875 L 310.324219 75.167969 L 301.855469 75.167969 Z M 301.855469 73.46875 "/>
<path style=" stroke:none;fill-rule:nonzero;fill:rgb(100%,100%,100%);fill-opacity:1;" d="M 301.855469 76.867188 L 310.324219 76.867188 L 310.324219 78.566406 L 301.855469 78.566406 Z M 301.855469 76.867188 "/>
<path style=" stroke:none;fill-rule:nonzero;fill:rgb(100%,100%,100%);fill-opacity:1;" d="M 301.855469 80.265625 L 310.324219 80.265625 L 310.324219 81.964844 L 301.855469 81.964844 Z M 301.855469 80.265625 "/>
<path style=" stroke:none;fill-rule:nonzero;fill:rgb(42.352941%,38.823529%,100%);fill-opacity:1;" d="M 331.671875 54.472656 L 317.703125 54.472656 C 318.78125 50.121094 318.648438 45.410156 317.703125 40.457031 L 331.671875 40.457031 C 329.71875 44.925781 329.71875 50.007812 331.671875 54.472656 Z M 331.671875 54.472656 "/>
<path style=" stroke:none;fill-rule:nonzero;fill:rgb(100%,100%,100%);fill-opacity:1;" d="M 319.816406 43.429688 L 328.285156 43.429688 L 328.285156 45.128906 L 319.816406 45.128906 Z M 319.816406 43.429688 "/>
<path style=" stroke:none;fill-rule:nonzero;fill:rgb(100%,100%,100%);fill-opacity:1;" d="M 319.816406 46.828125 L 328.285156 46.828125 L 328.285156 48.527344 L 319.816406 48.527344 Z M 319.816406 46.828125 "/>
<path style=" stroke:none;fill-rule:nonzero;fill:rgb(100%,100%,100%);fill-opacity:1;" d="M 319.816406 50.226562 L 328.285156 50.226562 L 328.285156 51.925781 L 319.816406 51.925781 Z M 319.816406 50.226562 "/>
<path style=" stroke:none;fill-rule:nonzero;fill:rgb(18.431373%,18.039216%,25.490196%);fill-opacity:1;" d="M 86.773438 64.660156 L 62.832031 64.660156 L 62.832031 51.808594 C 62.832031 45.175781 68.191406 39.796875 74.800781 39.796875 C 81.414062 39.796875 86.773438 45.175781 86.773438 51.808594 Z M 86.773438 64.660156 "/>
<path style=" stroke:none;fill-rule:nonzero;fill:rgb(100%,71.372549%,71.372549%);fill-opacity:1;" d="M 97.457031 207.65625 L 102.605469 207.65625 L 105.058594 187.730469 L 97.457031 187.730469 Z M 97.457031 207.65625 "/>
<path style=" stroke:none;fill-rule:nonzero;fill:rgb(18.431373%,18.039216%,25.490196%);fill-opacity:1;" d="M 96.144531 205.96875 L 106.285156 205.96875 C 109.855469 205.96875 112.746094 208.871094 112.746094 212.453125 L 112.746094 212.664062 L 96.144531 212.664062 Z M 96.144531 205.96875 "/>
<path style=" stroke:none;fill-rule:nonzero;fill:rgb(100%,71.372549%,71.372549%);fill-opacity:1;" d="M 35.90625 200.761719 L 40.390625 203.300781 L 52.289062 187.160156 L 45.667969 183.410156 Z M 35.90625 200.761719 "/>
<path style=" stroke:none;fill-rule:nonzero;fill:rgb(18.431373%,18.039216%,25.490196%);fill-opacity:1;" d="M 35.589844 198.644531 L 44.417969 203.648438 L 44.421875 203.648438 C 47.527344 205.40625 48.625 209.363281 46.871094 212.480469 L 46.765625 212.664062 L 32.308594 204.472656 Z M 35.589844 198.644531 "/>
<path style=" stroke:none;fill-rule:nonzero;fill:rgb(18.431373%,18.039216%,25.490196%);fill-opacity:1;" d="M 68.8125 118.039062 L 68.417969 120.03125 C 68.417969 120.03125 67.222656 121.226562 67.820312 121.828125 C 68.417969 122.425781 68.21875 125.214844 68.21875 125.214844 C 67.882812 130.304688 61.257812 158.898438 60.074219 164.484375 C 60.074219 164.484375 50.933594 170.464844 43.78125 182.226562 C 36.628906 193.984375 36.429688 196.976562 36.429688 196.976562 L 44.378906 200.363281 L 64.246094 176.246094 C 64.246094 176.246094 69.808594 172.855469 71.796875 169.867188 C 73.78125 166.875 86.097656 135.980469 86.097656 135.980469 L 93.054688 168.273438 C 93.054688 168.273438 92.65625 180.03125 94.441406 187.605469 C 95.542969 192.386719 96.207031 197.257812 96.429688 202.15625 L 105.769531 201.160156 C 105.769531 201.160156 105.171875 172.855469 104.179688 169.867188 C 104.179688 169.867188 108.351562 135.378906 100.007812 121.628906 L 93.28125 103.640625 L 86.695312 101.097656 Z M 68.8125 118.039062 "/>
<path style=" stroke:none;fill-rule:nonzero;fill:rgb(100%,72.156863%,72.156863%);fill-opacity:1;" d="M 74.679688 42.941406 C 87.214844 43.15625 87.210938 61.863281 74.679688 62.078125 C 62.140625 61.863281 62.144531 43.15625 74.679688 42.941406 Z M 74.679688 42.941406 "/>
<path style=" stroke:none;fill-rule:nonzero;fill:rgb(18.431373%,18.039216%,25.490196%);fill-opacity:1;" d="M 84.324219 52.011719 L 82.195312 52.011719 L 81.613281 50.558594 L 81.90625 52.011719 L 70.253906 52.011719 L 70.632812 48.96875 L 67.800781 52.011719 L 64.972656 52.011719 L 64.972656 50.363281 C 64.96875 46.890625 66.8125 43.679688 69.808594 41.9375 C 72.804688 40.203125 76.496094 40.203125 79.492188 41.9375 C 82.488281 43.679688 84.332031 46.890625 84.324219 50.363281 Z M 84.324219 52.011719 "/>
<path style=" stroke:none;fill-rule:nonzero;fill:rgb(89.411765%,89.411765%,89.411765%);fill-opacity:1;" d="M 87.605469 67.664062 L 63.914062 67.859375 L 68.921875 118.808594 C 68.921875 118.808594 96.625 117.34375 96.640625 108.859375 L 94.046875 101.320312 Z M 87.605469 67.664062 "/>
<path style=" stroke:none;fill-rule:nonzero;fill:rgb(100%,100%,100%);fill-opacity:1;" d="M 131.691406 156.570312 L 49.113281 173.726562 C 48.265625 173.902344 47.292969 172.640625 46.933594 170.90625 L 38.253906 128.855469 C 37.894531 127.121094 38.292969 125.574219 39.136719 125.394531 L 121.71875 108.238281 C 122.5625 108.066406 123.535156 109.328125 123.894531 111.058594 L 132.574219 153.113281 C 132.929688 154.847656 132.535156 156.390625 131.691406 156.570312 Z M 131.691406 156.570312 "/>
<path style=" stroke:none;fill-rule:nonzero;fill:rgb(94.117647%,94.117647%,94.117647%);fill-opacity:1;" d="M 76.503906 136.527344 C 76.503906 140.613281 73.203125 143.925781 69.128906 143.925781 C 65.058594 143.925781 61.753906 140.613281 61.753906 136.527344 C 61.753906 132.441406 65.058594 129.128906 69.128906 129.128906 C 73.203125 129.128906 76.503906 132.441406 76.503906 136.527344 Z M 76.503906 136.527344 "/>
<path style=" stroke:none;fill-rule:nonzero;fill:rgb(89.411765%,89.411765%,89.411765%);fill-opacity:1;" d="M 96.382812 154.148438 L 60.957031 161.511719 C 60.914062 161.519531 60.871094 161.523438 60.824219 161.527344 L 71.570312 128.929688 C 71.703125 128.515625 72.042969 128.207031 72.464844 128.121094 C 72.890625 128.03125 73.328125 128.179688 73.613281 128.503906 L 88.886719 145.707031 L 89.621094 146.53125 Z M 96.382812 154.148438 "/>
<path style=" stroke:none;fill-rule:nonzero;fill:rgb(89.411765%,89.411765%,89.411765%);fill-opacity:1;" d="M 116.109375 150.050781 L 85.46875 156.417969 L 89.617188 146.53125 L 89.917969 145.820312 L 95.328125 132.9375 C 95.53125 132.53125 95.898438 132.230469 96.335938 132.113281 C 96.777344 131.992188 97.242188 132.066406 97.621094 132.316406 C 97.671875 132.351562 97.71875 132.390625 97.761719 132.429688 Z M 116.109375 150.050781 "/>
<path style=" stroke:none;fill-rule:nonzero;fill:rgb(79.215686%,79.215686%,79.215686%);fill-opacity:1;" d="M 131.691406 156.570312 L 49.113281 173.726562 C 48.265625 173.902344 47.292969 172.640625 46.933594 170.90625 L 38.253906 128.855469 C 37.894531 127.121094 38.292969 125.574219 39.136719 125.394531 L 121.71875 108.238281 C 122.5625 108.066406 123.535156 109.328125 123.894531 111.058594 L 132.574219 153.113281 C 132.929688 154.847656 132.535156 156.390625 131.691406 156.570312 Z M 39.394531 126.652344 C 38.890625 126.757812 38.652344 127.6875 38.867188 128.726562 L 47.542969 170.777344 C 47.761719 171.820312 48.34375 172.578125 48.851562 172.472656 L 131.433594 155.316406 C 131.941406 155.210938 132.175781 154.28125 131.960938 153.238281 L 123.28125 111.1875 C 123.066406 110.148438 122.480469 109.390625 121.976562 109.496094 Z M 39.394531 126.652344 "/>
<path style=" stroke:none;fill-rule:nonzero;fill:rgb(100%,71.372549%,71.372549%);fill-opacity:1;" d="M 107.257812 117.648438 C 106.203125 117.148438 105.421875 116.210938 105.125 115.078125 C 104.828125 113.949219 105.042969 112.742188 105.71875 111.789062 L 100.921875 104.148438 L 104.835938 100.089844 L 111.460938 110.976562 C 113.019531 112.246094 113.382812 114.480469 112.3125 116.183594 C 111.242188 117.886719 109.070312 118.515625 107.257812 117.648438 Z M 107.257812 117.648438 "/>
<path style=" stroke:none;fill-rule:nonzero;fill:rgb(89.411765%,89.411765%,89.411765%);fill-opacity:1;" d="M 83.964844 69.671875 L 87.402344 67.398438 C 87.402344 67.398438 90.054688 67.996094 92.875 73.441406 C 95.695312 78.886719 107.070312 103.21875 107.070312 103.21875 L 102.394531 107.984375 L 89.921875 88.890625 Z M 83.964844 69.671875 "/>
<path style=" stroke:none;fill-rule:nonzero;fill:rgb(100%,71.372549%,71.372549%);fill-opacity:1;" d="M 62.898438 123.734375 C 63.636719 122.828125 63.9375 121.640625 63.71875 120.496094 C 63.496094 119.34375 62.78125 118.355469 61.765625 117.785156 L 62.792969 108.8125 L 57.511719 106.855469 L 56.238281 119.542969 C 55.378906 121.363281 56.011719 123.539062 57.714844 124.609375 C 59.414062 125.679688 61.640625 125.300781 62.898438 123.734375 Z M 62.898438 123.734375 "/>
<path style=" stroke:none;fill-rule:nonzero;fill:rgb(89.411765%,89.411765%,89.411765%);fill-opacity:1;" d="M 67.03125 72.246094 L 63.914062 67.875 C 63.914062 67.875 61.78125 67.398438 59.261719 70.351562 C 56.742188 73.300781 55.273438 110.171875 55.273438 110.171875 L 64.511719 112.277344 L 69.972656 86.152344 Z M 67.03125 72.246094 "/>
<path style=" stroke:none;fill-rule:nonzero;fill:rgb(79.215686%,79.215686%,79.215686%);fill-opacity:1;" d="M 160.441406 212.777344 L 0.421875 212.777344 C 0.1875 212.777344 0 212.589844 0 212.355469 C 0 212.125 0.1875 211.9375 0.421875 211.9375 L 160.441406 211.9375 C 160.671875 211.9375 160.859375 212.125 160.859375 212.355469 C 160.859375 212.589844 160.671875 212.777344 160.441406 212.777344 Z M 160.441406 212.777344 "/>
<path style=" stroke:none;fill-rule:nonzero;fill:rgb(42.352941%,38.823529%,100%);fill-opacity:1;" d="M 57.480469 136.53125 L 43.8125 139.441406 C 43.964844 134.957031 42.863281 130.375 40.910156 125.730469 L 54.578125 122.816406 C 53.585938 127.59375 54.640625 132.566406 57.480469 136.53125 Z M 57.480469 136.53125 "/>
<path style=" stroke:none;fill-rule:nonzero;fill:rgb(100%,100%,100%);fill-opacity:1;" d="M 43.597656 128.195312 L 51.878906 126.433594 L 52.230469 128.09375 L 43.949219 129.859375 Z M 43.597656 128.195312 "/>
<path style=" stroke:none;fill-rule:nonzero;fill:rgb(100%,100%,100%);fill-opacity:1;" d="M 44.300781 131.519531 L 52.582031 129.753906 L 52.9375 131.417969 L 44.652344 133.179688 Z M 44.300781 131.519531 "/>
<path style=" stroke:none;fill-rule:nonzero;fill:rgb(100%,100%,100%);fill-opacity:1;" d="M 45.003906 134.84375 L 53.285156 133.082031 L 53.636719 134.742188 L 45.355469 136.507812 Z M 45.003906 134.84375 "/>
</g>
</svg>
